<svg id="Capa_1" enable-background="new 0 0 551.13 551.13" height="512" viewBox="0 0 551.13 551.13" width="512" xmlns="http://www.w3.org/2000/svg"><path d="m344.456 68.891c0-37.994-30.896-68.891-68.891-68.891s-68.891 30.897-68.891 68.891c0 37.995 30.897 68.891 68.891 68.891 37.995.001 68.891-30.896 68.891-68.891zm-68.891 34.446c-18.989 0-34.446-15.457-34.446-34.446s15.457-34.446 34.446-34.446 34.446 15.457 34.446 34.446-15.457 34.446-34.446 34.446z"/><path d="m499.462 137.783h-223.897-223.897c-9.52 0-17.223 7.703-17.223 17.223v68.891c0 9.52 7.703 17.223 17.223 17.223h120.56v292.788c0 9.52 7.703 17.223 17.223 17.223h172.228c9.52 0 17.223-7.703 17.223-17.223v-292.789h120.56c9.52 0 17.223-7.703 17.223-17.223v-68.891c0-9.519-7.704-17.222-17.223-17.222zm-17.223 68.891h-120.56c-9.52 0-17.223 7.703-17.223 17.223v292.788h-51.668v-172.229h-34.446v172.228h-51.668v-292.787c0-9.52-7.703-17.223-17.223-17.223h-120.56v-34.446h413.348z"/></svg>