<svg height="384pt" viewBox="0 0 384 384" width="384pt" xmlns="http://www.w3.org/2000/svg"><path d="m320 0h-256c-35.289062 0-64 28.710938-64 64v192c0 35.289062 28.710938 64 64 64h216.808594l47.917968 53.910156c.210938.234375.425782.464844.648438.683594 6.136719 6.140625 14.28125 9.390625 22.59375 9.390625 4.128906 0 8.296875-.808594 12.269531-2.457031 12-4.96875 19.761719-16.574219 19.761719-29.558594v-287.96875c0-35.289062-28.710938-64-64-64zm32 351.929688-52.039062-58.5625c-.113282-.121094-.242188-.207032-.351563-.328126-.378906-.398437-.792969-.75-1.203125-1.101562-.390625-.335938-.765625-.679688-1.175781-.976562-.414063-.296876-.863281-.535157-1.300781-.785157-.457032-.265625-.90625-.535156-1.378907-.75-.460937-.210937-.949219-.355469-1.429687-.523437-.496094-.167969-.984375-.34375-1.496094-.460938-.480469-.113281-.976562-.160156-1.472656-.234375-.550782-.070312-1.105469-.152343-1.664063-.167969-.175781 0-.328125-.039062-.488281-.039062h-224c-17.648438 0-32-14.351562-32-32v-192c0-17.648438 14.351562-32 32-32h256c17.648438 0 32 14.351562 32 32zm0 0"/><path d="m264 144h-18.359375c-1.113281-3.710938-2.570313-7.28125-4.394531-10.625l12.976562-12.96875c6.25-6.246094 6.25-16.375 0-22.628906-6.246094-6.257813-16.375-6.25-22.621094 0l-12.976562 12.976562c-3.351562-1.816406-6.914062-3.28125-10.625-4.386718v-18.367188c0-8.832031-7.167969-16-16-16s-16 7.167969-16 16v18.359375c-3.710938 1.113281-7.28125 2.570313-10.625 4.394531l-12.96875-12.96875c-6.238281-6.25-16.382812-6.25-22.621094 0-6.25 6.246094-6.25 16.375 0 22.621094l12.96875 12.96875c-1.816406 3.351562-3.28125 6.914062-4.394531 10.625h-18.359375c-8.832031 0-16 7.167969-16 16s7.167969 16 16 16h18.359375c1.113281 3.710938 2.570313 7.28125 4.394531 10.625l-12.976562 12.976562c-6.25 6.246094-6.25 16.382813 0 22.621094 3.125 3.128906 7.214844 4.6875 11.3125 4.6875 4.09375 0 8.191406-1.558594 11.316406-4.6875l12.96875-12.976562c3.351562 1.816406 6.914062 3.28125 10.625 4.386718v18.367188c0 8.832031 7.167969 16 16 16s16-7.167969 16-16v-18.359375c3.710938-1.113281 7.273438-2.570313 10.625-4.382813l12.976562 12.972657c3.125 3.128906 7.214844 4.691406 11.308594 4.691406 4.097656 0 8.1875-1.5625 11.3125-4.691406 6.25-6.246094 6.25-16.382813 0-22.628907l-12.976562-12.96875c1.816406-3.351562 3.28125-6.914062 4.394531-10.625h18.359375c8.832031 0 16-7.167968 16-16 0-8.832031-7.167969-16.007812-16-16.007812zm-96 16c0-13.230469 10.769531-24 24-24s24 10.769531 24 24-10.769531 24-24 24-24-10.769531-24-24zm0 0"/></svg>