<?xml version="1.0" encoding="iso-8859-1"?>
<!-- Generator: Adobe Illustrator 19.0.0, SVG Export Plug-In . SVG Version: 6.00 Build 0)  -->
<svg version="1.1" id="Capa_1" xmlns="http://www.w3.org/2000/svg" xmlns:xlink="http://www.w3.org/1999/xlink" x="0px" y="0px"
	 viewBox="0 0 480.001 480.001" style="enable-background:new 0 0 480.001 480.001;" xml:space="preserve">
<g>
	<g>
		<path d="M476.481,1.35c-2.228-1.483-5.051-1.753-7.52-0.72l-88,36.56c-89.967,37.44-191.153,37.44-281.12,0l-88-36.56
			c-2.469-1.033-5.292-0.763-7.52,0.72c-2.512,1.295-4.154,3.819-4.32,6.64v154.08c-0.261,132.787,79.776,252.558,202.56,303.12
			l34.4,14.16c1.936,0.856,4.144,0.856,6.08,0l34.4-14.16c122.784-50.562,202.821-170.333,202.56-303.12V7.99
			C480.005,5.329,478.685,2.84,476.481,1.35z M232.001,343.27c-23.077-3.901-39.976-23.876-40-47.28h-16
			c0.029,32.231,24.022,59.411,56,63.44v100.56l-23.28-9.6C91.907,402.318,15.753,288.388,16.001,162.07V19.99l77.36,32
			c44,18.246,91.018,28.122,138.64,29.12V343.27z M464.001,162.07c0.118,126.202-76.014,239.973-192.72,288l-23.28,9.92v-99.28
			c23.077,3.901,39.976,23.876,40,47.28h16c-0.029-32.231-24.022-59.411-56-63.44V81.11c47.622-0.998,94.64-10.874,138.64-29.12
			l77.36-32V162.07z"/>
	</g>
</g>
<g>
	<g>
		<path d="M74.401,186.229c-0.027,0.027-0.054,0.053-0.08,0.08l11.36,11.36c31.807-31.988,83.524-32.135,115.513-0.328
			c0.109,0.109,0.219,0.218,0.328,0.328l11.36-11.36C174.663,148.047,112.663,148.011,74.401,186.229z"/>
	</g>
</g>
<g>
	<g>
		<path d="M394.321,186.31c-31.807,31.988-83.524,32.135-115.513,0.328c-0.109-0.109-0.219-0.218-0.328-0.328l-11.36,11.36
			c38.218,38.262,100.217,38.298,138.48,0.08c0.027-0.027,0.054-0.053,0.08-0.08L394.321,186.31z"/>
	</g>
</g>
<g>
</g>
<g>
</g>
<g>
</g>
<g>
</g>
<g>
</g>
<g>
</g>
<g>
</g>
<g>
</g>
<g>
</g>
<g>
</g>
<g>
</g>
<g>
</g>
<g>
</g>
<g>
</g>
<g>
</g>
</svg>
