<?xml version="1.0" encoding="iso-8859-1"?>
<!-- Generator: Adobe Illustrator 19.0.0, SVG Export Plug-In . SVG Version: 6.00 Build 0)  -->
<svg xmlns="http://www.w3.org/2000/svg" xmlns:xlink="http://www.w3.org/1999/xlink" version="1.1" id="Layer_1" x="0px" y="0px" viewBox="0 0 512 512" style="enable-background:new 0 0 512 512;" xml:space="preserve" width="512" height="512">
<g>
	<path d="M437,392V0H0v437c0,41.355,33.645,75,75,75h362c41.355,0,75-33.645,75-75v-45H437z M120,437c0,24.813-20.187,45-45,45   s-45-20.187-45-45V30h377v362H120V437z M482,437c0,24.813-20.187,45-45,45H134.965C144.4,469.457,150,453.869,150,437v-15h332V437z   "/>
	<polygon points="355.787,170.086 321.394,204.48 287,170.086 265.787,191.299 300.181,225.693 265.787,260.086 287,281.299    321.394,246.906 355.787,281.299 377,260.086 342.606,225.693 377,191.299  "/>
	<path d="M180.935,191.299l19.394,19.394H147.42c-6.192-17.459-22.865-30-42.42-30c-24.813,0-45,20.187-45,45s20.187,45,45,45   c19.555,0,36.228-12.541,42.42-30h52.908l-19.394,19.394l21.213,21.213l55.606-55.606l-55.606-55.606L180.935,191.299z    M105,240.693c-8.271,0-15-6.729-15-15s6.729-15,15-15s15,6.729,15,15S113.271,240.693,105,240.693z"/>
</g>















</svg>
